# xmcd
#
# Track frame offsets: 
#        150
#        18400
#        36062
#        48667
#        64775
#        81905
#        95235
#        110512
#        128130
#        146552
#        166105
#        178747
#
# Disc length: 2603 seconds
#
# Revision: 8
# Processed by: cddbd v1.5.2PL0 Copyright (c) Steve Scherf et al.
# Submitted via: ExactAudioCopyFreeDBPlugin 1.0
#
DISCID=a50a290c
DTITLE=Trisha Yearwood - (Songbook) A Collection Of Hits
DYEAR=1997
DGENRE=Country
TTITLE0=How Do I Live
TTITLE1=The Song Remembers When
TTITLE2=The Wrong Side Of Memphis
TTITLE3=In Another's Eyes (With Garth Brooks)
TTITLE4=The Woman Before Me
TTITLE5=Perfect Love
TTITLE6=Thinkin' About You
TTITLE7=Down On My Knees
TTITLE8=She's In Love With The Boy
TTITLE9=Walkaway Joe
TTITLE10=Xxx's And Ooo's (An American Girl)
TTITLE11=Like We Never Had A Broken Heart
EXTD=YEAR: 1997
EXTT0=
EXTT1=
EXTT2=
EXTT3=
EXTT4=
EXTT5=
EXTT6=
EXTT7=
EXTT8=
EXTT9=
EXTT10=
EXTT11=
PLAYORDER=
